AmstlevarItalic-Italic-opsz144-wght900-wdth50.ufo
<glyph name="hyphen" format="2">
  <advance width="716"/>
  <unicode hex="002D"/>
  <outline>
    <contour>
      <point x="56.0" y="493.0" type="line"/>
      <point x="89.0" y="790.0" type="line"/>
      <point x="372.0" y="786.0" type="line"/>
      <point x="645.0" y="790.0" type="line"/>
      <point x="612.0" y="493.0" type="line"/>
      <point x="339.0" y="497.0" type="line"/>
    </contour>
  </outline>
</glyph>
<glyph name="C" format="2">
  <advance width="1013"/>
  <unicode hex="0043"/>
  <outline>
    <contour>
      <point x="40" y="769" type="qcurve" smooth="yes"/>
      <point x="108" y="1142"/>
      <point x="542" y="1530"/>
      <point x="812" y="1506" type="qcurve" smooth="yes"/>
      <point x="907" y="1498"/>
      <point x="1003" y="1431"/>
      <point x="1023" y="1400" type="qcurve"/>
      <point x="1062" y="1500" type="line"/>
      <point x="1135" y="1500" type="line"/>
      <point x="1039" y="1042" type="line"/>
      <point x="972" y="1042" type="line"/>
      <point x="968" y="1195" type="line" smooth="yes"/>
      <point x="965" y="1301"/>
      <point x="932" y="1433"/>
      <point x="867" y="1445" type="qcurve" smooth="yes"/>
      <point x="772" y="1463"/>
      <point x="680" y="1266"/>
      <point x="555" y="746" type="qcurve" smooth="yes"/>
      <point x="434" y="241"/>
      <point x="435" y="73"/>
      <point x="513" y="60" type="qcurve" smooth="yes"/>
      <point x="633" y="40"/>
      <point x="836" y="182"/>
      <point x="896" y="345" type="qcurve"/>
      <point x="936" y="325" type="line"/>
      <point x="936" y="306" type="line"/>
      <point x="875" y="133"/>
      <point x="609" y="-43"/>
      <point x="405" y="-16" type="qcurve" smooth="yes"/>
      <point x="167" y="15"/>
      <point x="-28" y="395"/>
    </contour>
  </outline>
</glyph>
<glyph name="D" format="2">
  <advance width="1196"/>
  <unicode hex="0044"/>
  <outline>
    <contour>
      <point x="-123" y="0" type="line"/>
      <point x="-121" y="51" type="line"/>
      <point x="-57" y="66" type="line"/>
      <point x="101" y="786" type="line"/>
      <point x="235" y="1437" type="line"/>
      <point x="166" y="1446" type="line"/>
      <point x="174" y="1500" type="line"/>
      <point x="838" y="1500" type="line" smooth="yes"/>
      <point x="1036" y="1500"/>
      <point x="1254" y="1148"/>
      <point x="1171" y="737" type="qcurve" smooth="yes"/>
      <point x="1095" y="359"/>
      <point x="752" y="0"/>
      <point x="571" y="0" type="qcurve" smooth="yes"/>
    </contour>
    <contour>
      <point x="420" y="65" type="line"/>
      <point x="431" y="63"/>
      <point x="452" y="59"/>
      <point x="469" y="59" type="qcurve" smooth="yes"/>
      <point x="531" y="59"/>
      <point x="568" y="192"/>
      <point x="691" y="763" type="qcurve" smooth="yes"/>
      <point x="820" y="1363"/>
      <point x="794" y="1454"/>
      <point x="761" y="1454" type="qcurve" smooth="yes"/>
      <point x="743" y="1454"/>
      <point x="726" y="1454"/>
      <point x="716" y="1447" type="qcurve"/>
      <point x="563" y="761" type="line"/>
    </contour>
  </outline>
</glyph>
<glyph name="E" format="2">
  <advance width="1010"/>
  <unicode hex="0045"/>
  <outline>
    <contour>
      <point x="-119" y="0" type="line"/>
      <point x="-121" y="51" type="line"/>
      <point x="-58" y="65" type="line"/>
      <point x="97" y="790" type="line"/>
      <point x="237" y="1437" type="line"/>
      <point x="170" y="1449" type="line"/>
      <point x="177" y="1500" type="line"/>
      <point x="1106" y="1500" type="line"/>
      <point x="1005" y="1101" type="line"/>
      <point x="953" y="1101" type="line"/>
      <point x="945" y="1440" type="line"/>
      <point x="737" y="1440" type="line"/>
      <point x="705" y="1418" type="line"/>
      <point x="572" y="773" type="line"/>
      <point x="422" y="94" type="line"/>
      <point x="438" y="63" type="line"/>
      <point x="669" y="63" type="line"/>
      <point x="874" y="423" type="line"/>
      <point x="936" y="423" type="line"/>
      <point x="807" y="0" type="line"/>
    </contour>
    <contour>
      <point x="337" y="761" type="line"/>
      <point x="357" y="815" type="line"/>
      <point x="723" y="810" type="line"/>
      <point x="827" y="995" type="line"/>
      <point x="885" y="995" type="line"/>
      <point x="788" y="556" type="line"/>
      <point x="730" y="556" type="line"/>
      <point x="710" y="758" type="line"/>
    </contour>
  </outline>
</glyph>
<glyph name="G" format="2">
  <advance width="1122"/>
  <unicode hex="0047"/>
  <outline>
    <contour>
      <point x="50" y="819" type="qcurve" smooth="yes"/>
      <point x="114" y="1142"/>
      <point x="541" y="1540"/>
      <point x="812" y="1509" type="qcurve" smooth="yes"/>
      <point x="907" y="1498"/>
      <point x="1003" y="1431"/>
      <point x="1023" y="1400" type="qcurve"/>
      <point x="1062" y="1500" type="line"/>
      <point x="1135" y="1500" type="line"/>
      <point x="1039" y="1042" type="line"/>
      <point x="972" y="1042" type="line"/>
      <point x="968" y="1193" type="line" smooth="yes"/>
      <point x="965" y="1306"/>
      <point x="930" y="1433"/>
      <point x="861" y="1446" type="qcurve" smooth="yes"/>
      <point x="773" y="1462"/>
      <point x="682" y="1256"/>
      <point x="556" y="746" type="qcurve" smooth="yes"/>
      <point x="466" y="381"/>
      <point x="433" y="73"/>
      <point x="501" y="54" type="qcurve" smooth="yes"/>
      <point x="517" y="49"/>
      <point x="561" y="47"/>
      <point x="567" y="47" type="qcurve"/>
      <point x="670" y="564" type="line"/>
      <point x="611" y="576" type="line"/>
      <point x="625" y="635" type="line"/>
      <point x="1130" y="635" type="line"/>
      <point x="1122" y="577" type="line"/>
      <point x="1061" y="565" type="line"/>
      <point x="984" y="173" type="line"/>
      <point x="970" y="159" type="line"/>
      <point x="880" y="66"/>
      <point x="562" y="-38"/>
      <point x="406" y="-17" type="qcurve" smooth="yes"/>
      <point x="167" y="15"/>
      <point x="-23" y="450"/>
    </contour>
  </outline>
</glyph>
<glyph name="I" format="2">
  <advance width="666"/>
  <unicode hex="0049"/>
  <outline>
    <contour>
      <point x="-113" y="0" type="line"/>
      <point x="-119" y="47" type="line"/>
      <point x="-49" y="66" type="line"/>
      <point x="115" y="784" type="line"/>
      <point x="246" y="1435" type="line"/>
      <point x="175" y="1446" type="line"/>
      <point x="183" y="1500" type="line"/>
      <point x="807" y="1500" type="line"/>
      <point x="799" y="1446" type="line"/>
      <point x="747" y="1435" type="line"/>
      <point x="591" y="753" type="line"/>
      <point x="453" y="65" type="line"/>
      <point x="511" y="47" type="line"/>
      <point x="502" y="0" type="line"/>
    </contour>
  </outline>
</glyph>
<glyph name="J" format="2">
  <advance width="758"/>
  <unicode hex="004A"/>
  <outline>
    <contour>
      <point x="-137" y="0" type="qcurve"/>
      <point x="-124" y="48" type="line"/>
      <point x="-110" y="46"/>
      <point x="-79" y="44"/>
      <point x="-50" y="45" type="qcurve" smooth="yes"/>
      <point x="10" y="47"/>
      <point x="67" y="149"/>
      <point x="96" y="289" type="qcurve" smooth="yes"/>
      <point x="194" y="763" type="line"/>
      <point x="330" y="1435" type="line"/>
      <point x="248" y="1446" type="line"/>
      <point x="256" y="1500" type="line"/>
      <point x="902" y="1500" type="line"/>
      <point x="894" y="1446" type="line"/>
      <point x="831" y="1437" type="line"/>
      <point x="671" y="752" type="line"/>
      <point x="593" y="326" type="line" smooth="yes"/>
      <point x="561" y="152"/>
      <point x="277" y="-18"/>
      <point x="26" y="-18" type="qcurve" smooth="yes"/>
      <point x="-25" y="-18"/>
      <point x="-121" y="-5"/>
    </contour>
  </outline>
</glyph>
<glyph name="K" format="2">
  <advance width="1203"/>
  <unicode hex="004B"/>
  <outline>
    <contour>
      <point x="-119" y="0" type="line"/>
      <point x="-118" y="51" type="line"/>
      <point x="-59" y="64" type="line"/>
      <point x="101" y="791" type="line"/>
      <point x="236" y="1437" type="line"/>
      <point x="167" y="1448" type="line"/>
      <point x="177" y="1500" type="line"/>
      <point x="788" y="1500" type="line"/>
      <point x="777" y="1446" type="line"/>
      <point x="713" y="1437" type="line"/>
      <point x="562" y="755" type="line"/>
      <point x="419" y="65" type="line"/>
      <point x="461" y="51" type="line"/>
      <point x="450" y="0" type="line"/>
    </contour>
    <contour>
      <point x="479" y="547" type="line"/>
      <point x="504" y="661" type="line"/>
      <point x="1152" y="1405" type="line"/>
      <point x="1063" y="1446" type="line"/>
      <point x="1080" y="1500" type="line"/>
      <point x="1378" y="1500" type="line"/>
      <point x="1371" y="1446" type="line"/>
      <point x="1223" y="1401" type="line"/>
    </contour>
    <contour>
      <point x="554" y="665" type="line"/>
      <point x="953" y="1137" type="line"/>
      <point x="1044" y="64" type="line"/>
      <point x="1107" y="51" type="line"/>
      <point x="1094" y="0" type="line"/>
      <point x="531" y="0" type="line"/>
      <point x="547" y="51" type="line"/>
      <point x="593" y="63" type="line"/>
    </contour>
  </outline>
</glyph>
<glyph name="M" format="2">
  <advance width="1400"/>
  <unicode hex="004D"/>
  <outline>
    <contour>
      <point x="-164" y="0" type="line"/>
      <point x="-161" y="51" type="line"/>
      <point x="-51" y="82" type="line"/>
      <point x="118" y="726" type="line"/>
      <point x="294" y="1401" type="line"/>
      <point x="183" y="1448" type="line"/>
      <point x="195" y="1500" type="line"/>
      <point x="771" y="1500" type="line"/>
      <point x="689" y="872" type="line"/>
      <point x="641" y="422" type="line"/>
      <point x="786" y="862" type="line"/>
      <point x="997" y="1500" type="line"/>
      <point x="1569" y="1500" type="line"/>
      <point x="1558" y="1447" type="line"/>
      <point x="1488" y="1436" type="line"/>
      <point x="1330" y="698" type="line"/>
      <point x="1194" y="66" type="line"/>
      <point x="1264" y="51" type="line"/>
      <point x="1255" y="0" type="line"/>
      <point x="644" y="0" type="line"/>
      <point x="651" y="51" type="line"/>
      <point x="718" y="66" type="line"/>
      <point x="873" y="758" type="line"/>
      <point x="1018" y="1407" type="line"/>
      <point x="831" y="837" type="line"/>
      <point x="557" y="0" type="line"/>
      <point x="171" y="0" type="line"/>
      <point x="264" y="741" type="line"/>
      <point x="331" y="1353" type="line"/>
      <point x="166" y="708" type="line"/>
      <point x="6" y="83" type="line"/>
      <point x="108" y="51" type="line"/>
      <point x="98" y="0" type="line"/>
    </contour>
  </outline>
</glyph>
<glyph name="P" format="2">
  <advance width="1128"/>
  <unicode hex="0050"/>
  <outline>
    <contour>
      <point x="-123" y="0" type="line"/>
      <point x="-120" y="51" type="line"/>
      <point x="-58" y="66" type="line"/>
      <point x="113" y="843" type="line"/>
      <point x="238" y="1436" type="line"/>
      <point x="169" y="1446" type="line"/>
      <point x="177" y="1500" type="line"/>
      <point x="824" y="1500" type="line" smooth="yes"/>
      <point x="1024" y="1500"/>
      <point x="1216" y="1275"/>
      <point x="1180" y="1048" type="qcurve" smooth="yes"/>
      <point x="1144" y="826"/>
      <point x="862" y="660"/>
      <point x="693" y="660" type="qcurve" smooth="yes"/>
      <point x="622" y="660"/>
      <point x="554" y="675"/>
      <point x="519" y="687" type="qcurve"/>
      <point x="534" y="741" type="line"/>
      <point x="556" y="729"/>
      <point x="580" y="716"/>
      <point x="605" y="716" type="qcurve" smooth="yes"/>
      <point x="633" y="716"/>
      <point x="668" y="803"/>
      <point x="732" y="1086" type="qcurve" smooth="yes"/>
      <point x="790" y="1343"/>
      <point x="772" y="1447"/>
      <point x="731" y="1447" type="qcurve" smooth="yes"/>
      <point x="710" y="1447" type="line"/>
      <point x="693" y="1433" type="line"/>
      <point x="549" y="764" type="line"/>
      <point x="399" y="66" type="line"/>
      <point x="486" y="51" type="line"/>
      <point x="475" y="0" type="line"/>
    </contour>
  </outline>
</glyph>
<glyph name="Q" format="2">
  <advance width="1208"/>
  <unicode hex="0051"/>
  <outline>
    <contour>
      <point x="53" y="815" type="qcurve" smooth="yes"/>
      <point x="127" y="1200"/>
      <point x="542" y="1536"/>
      <point x="794" y="1506" type="qcurve" smooth="yes"/>
      <point x="1015" y="1480"/>
      <point x="1258" y="1104"/>
      <point x="1193" y="731" type="qcurve" smooth="yes"/>
      <point x="1125" y="339"/>
      <point x="691" y="-30"/>
      <point x="437" y="11" type="qcurve" smooth="yes"/>
      <point x="177" y="53"/>
      <point x="-21" y="431"/>
    </contour>
    <contour>
      <point x="560" y="789" type="qcurve" smooth="yes"/>
      <point x="436" y="265"/>
      <point x="399" y="57"/>
      <point x="448" y="46" type="qcurve" smooth="yes"/>
      <point x="497" y="36"/>
      <point x="559" y="236"/>
      <point x="676" y="754" type="qcurve" smooth="yes"/>
      <point x="796" y="1287"/>
      <point x="831" y="1464"/>
      <point x="785" y="1471" type="qcurve" smooth="yes"/>
      <point x="739" y="1478"/>
      <point x="680" y="1298"/>
    </contour>
    <contour>
      <point x="-25.0" y="-286.0" type="line"/>
      <point x="-9.0" y="-238.0"/>
      <point x="185" y="-104"/>
      <point x="283.0" y="-69.0" type="qcurve" smooth="yes"/>
      <point x="365" y="-40"/>
      <point x="537" y="49"/>
      <point x="559" y="108" type="qcurve" smooth="yes"/>
      <point x="564" y="118"/>
      <point x="572" y="127"/>
      <point x="574" y="128" type="qcurve"/>
      <point x="578" y="128"/>
      <point x="597" y="116"/>
      <point x="600" y="113" type="qcurve"/>
      <point x="599" y="112"/>
      <point x="594" y="102"/>
      <point x="590" y="94" type="qcurve" smooth="yes"/>
      <point x="564" y="32"/>
      <point x="390.0" y="-73.0"/>
      <point x="307.0" y="-93.0" type="qcurve"/>
      <point x="393.0" y="-104.0" type="line"/>
      <point x="668" y="-173"/>
      <point x="797.0" y="-182.0"/>
      <point x="868.0" y="-88.0" type="qcurve"/>
      <point x="893.0" y="-103.0" type="line"/>
      <point x="833.0" y="-204.0"/>
      <point x="657.0" y="-387.0"/>
      <point x="566.0" y="-423.0" type="qcurve"/>
      <point x="154.0" y="-290.0" type="line"/>
      <point x="102.0" y="-268.0"/>
      <point x="37.0" y="-276.0"/>
      <point x="0.0" y="-314.0" type="qcurve"/>
    </contour>
  </outline>
</glyph>
<glyph name="R" format="2">
  <advance width="1383"/>
  <unicode hex="0052"/>
  <outline>
    <contour>
      <point x="-39.0" y="0.0" type="line"/>
      <point x="-45.0" y="51.0" type="line"/>
      <point x="-10.0" y="54.0" type="line"/>
      <point x="163.0" y="848.0" type="line"/>
      <point x="276.0" y="1437.0" type="line"/>
      <point x="195.0" y="1446.0" type="line"/>
      <point x="203.0" y="1500.0" type="line"/>
      <point x="962.0" y="1500.0" type="line" smooth="yes"/>
      <point x="1196.0" y="1500.0"/>
      <point x="1380.0" y="1304.0"/>
      <point x="1377.0" y="1155.0" type="qcurve" smooth="yes"/>
      <point x="1366.0" y="946.0"/>
      <point x="1137.0" y="721.0"/>
      <point x="918.0" y="721.0" type="qcurve" smooth="yes"/>
      <point x="859.0" y="721.0"/>
      <point x="647.0" y="727.0"/>
      <point x="601.0" y="731.0" type="qcurve"/>
      <point x="608.0" y="804.0" type="line"/>
      <point x="695.0" y="801.0" type="line"/>
      <point x="639.0" y="801.0" type="line" smooth="yes"/>
      <point x="742.0" y="801.0"/>
      <point x="902.0" y="994.0"/>
      <point x="918.0" y="1164.0" type="qcurve" smooth="yes"/>
      <point x="934.0" y="1320.0"/>
      <point x="876.0" y="1430.0"/>
      <point x="771.0" y="1430.0" type="qcurve" smooth="yes"/>
      <point x="791.0" y="1430.0" type="line"/>
      <point x="765.0" y="1408.0" type="line"/>
      <point x="625.0" y="731.0" type="line"/>
      <point x="492.0" y="54.0" type="line"/>
      <point x="594.0" y="51.0" type="line"/>
      <point x="593.0" y="0.0" type="line"/>
    </contour>
    <contour>
      <point x="660.0" y="738.0" type="line"/>
      <point x="1092.0" y="756.0" type="line"/>
      <point x="1110.0" y="658.0" type="line" smooth="yes"/>
      <point x="1164.0" y="346.0"/>
      <point x="1307.0" y="36.0"/>
      <point x="1376.0" y="35.0" type="qcurve"/>
      <point x="1367.0" y="-11.0" type="line"/>
      <point x="1112.0" y="-11.0" type="line" smooth="yes"/>
      <point x="950.0" y="-11.0"/>
      <point x="715.0" y="196.0"/>
      <point x="678.0" y="558.0" type="qcurve" smooth="yes"/>
    </contour>
  </outline>
</glyph>
<glyph name="T" format="2">
  <advance width="1117"/>
  <unicode hex="0054"/>
  <outline>
    <contour>
      <point x="107" y="1145" type="line"/>
      <point x="176" y="1500" type="line"/>
      <point x="1277" y="1500" type="line"/>
      <point x="1208" y="1145" type="line"/>
      <point x="1136" y="1145" type="line"/>
      <point x="1108" y="1441" type="line"/>
      <point x="977" y="1441" type="line"/>
      <point x="959" y="1419" type="line"/>
      <point x="816" y="754" type="line"/>
      <point x="678" y="65" type="line"/>
      <point x="759" y="46" type="line"/>
      <point x="748" y="0" type="line"/>
      <point x="89" y="0" type="line"/>
      <point x="85" y="47" type="line"/>
      <point x="177" y="64" type="line"/>
      <point x="332" y="755" type="line"/>
      <point x="461" y="1419" type="line"/>
      <point x="442" y="1441" type="line"/>
      <point x="318" y="1441" type="line"/>
      <point x="179" y="1145" type="line"/>
    </contour>
  </outline>
</glyph>
<glyph name="V" format="2">
  <advance width="1027"/>
  <unicode hex="0056"/>
  <outline>
    <contour>
      <point x="153" y="1444" type="line"/>
      <point x="163" y="1500" type="line"/>
      <point x="742" y="1500" type="line"/>
      <point x="732" y="1444" type="line"/>
      <point x="660" y="1419" type="line"/>
      <point x="647" y="760" type="line"/>
      <point x="637" y="213" type="line"/>
      <point x="637" y="213" type="line"/>
      <point x="819" y="816" type="line"/>
      <point x="1001" y="1422" type="line"/>
      <point x="916" y="1444" type="line"/>
      <point x="929" y="1500" type="line"/>
      <point x="1163" y="1500" type="line"/>
      <point x="1151" y="1444" type="line"/>
      <point x="1064" y="1421" type="line"/>
      <point x="877" y="797" type="line"/>
      <point x="639" y="2" type="line"/>
      <point x="209" y="2" type="line"/>
      <point x="206" y="751" type="line"/>
      <point x="204" y="1416" type="line"/>
    </contour>
  </outline>
</glyph>
<glyph name="a" format="2">
  <advance width="1144"/>
  <unicode hex="0061"/>
  <outline>
    <contour>
      <point x="-9.0" y="258.0" type="qcurve" smooth="yes"/>
      <point x="6.0" y="555.0"/>
      <point x="354.0" y="987.0"/>
      <point x="630.0" y="987.0" type="qcurve" smooth="yes"/>
      <point x="703.0" y="987.0"/>
      <point x="797.0" y="950.0"/>
      <point x="814.0" y="913.0" type="qcurve"/>
      <point x="969.0" y="976.0" type="line"/>
      <point x="1085.0" y="969.0" type="line"/>
      <point x="1129.0" y="886.0" type="line"/>
      <point x="1003.0" y="428.0" type="line"/>
      <point x="957.0" y="211.0" type="line"/>
      <point x="942.0" y="147.0"/>
      <point x="963.0" y="41.0"/>
      <point x="999.0" y="-6.0" type="qcurve"/>
      <point x="747.0" y="-13.0" type="line"/>
      <point x="709.0" y="-17.0"/>
      <point x="616.0" y="121.0"/>
      <point x="592.0" y="201.0" type="qcurve"/>
      <point x="534.0" y="94.0"/>
      <point x="412.0" y="-5.0"/>
      <point x="254.0" y="-5.0" type="qcurve" smooth="yes"/>
      <point x="127.0" y="-5.0"/>
      <point x="-15.0" y="133.0"/>
    </contour>
    <contour>
      <point x="433.0" y="285.0" type="qcurve" smooth="yes"/>
      <point x="428.0" y="193.0"/>
      <point x="452.0" y="124.0"/>
      <point x="480.0" y="124.0" type="qcurve" smooth="yes"/>
      <point x="493.0" y="124.0"/>
      <point x="564.0" y="294.0"/>
      <point x="607.0" y="466.0" type="qcurve" smooth="yes"/>
      <point x="708.0" y="861.0" type="line"/>
      <point x="705.0" y="880.0"/>
      <point x="694.0" y="934.0"/>
      <point x="654.0" y="934.0" type="qcurve" smooth="yes"/>
      <point x="607.0" y="934.0"/>
      <point x="445.0" y="428.0"/>
    </contour>
  </outline>
</glyph>
<glyph name="c" format="2">
  <advance width="921"/>
  <unicode hex="0063"/>
  <outline>
    <contour>
      <point x="28.0" y="474.0" type="qcurve" smooth="yes"/>
      <point x="52.0" y="699.0"/>
      <point x="315.0" y="988.0"/>
      <point x="620.0" y="988.0" type="qcurve" smooth="yes"/>
      <point x="785.0" y="988.0"/>
      <point x="906.0" y="861.0"/>
      <point x="901.0" y="788.0" type="qcurve" smooth="yes"/>
      <point x="897.0" y="726.0"/>
      <point x="818.0" y="612.0"/>
      <point x="788.0" y="582.0" type="qcurve"/>
      <point x="720.0" y="594.0" type="line"/>
      <point x="720.0" y="883.0" type="line" smooth="yes"/>
      <point x="720.0" y="896.0"/>
      <point x="679.0" y="926.0"/>
      <point x="659.0" y="926.0" type="qcurve" smooth="yes"/>
      <point x="620.0" y="926.0"/>
      <point x="526.0" y="659.0"/>
      <point x="511.0" y="472.0" type="qcurve" smooth="yes"/>
      <point x="488.0" y="257.0"/>
      <point x="503.0" y="98.0"/>
      <point x="562.0" y="98.0" type="qcurve" smooth="yes"/>
      <point x="614.0" y="98.0"/>
      <point x="731.0" y="237.0"/>
      <point x="769.0" y="319.0" type="qcurve"/>
      <point x="796.0" y="284.0" type="line"/>
      <point x="794.0" y="244.0" type="line"/>
      <point x="743.0" y="123.0"/>
      <point x="565.0" y="-21.0"/>
      <point x="415.0" y="-21.0" type="qcurve" smooth="yes"/>
      <point x="201.0" y="-21.0"/>
      <point x="-5.0" y="203.0"/>
    </contour>
  </outline>
</glyph>
<glyph name="h" format="2">
  <advance width="1128"/>
  <unicode hex="0068"/>
  <outline>
    <contour>
      <point x="-15.0" y="-6.0" type="line"/>
      <point x="-22.0" y="48.0" type="line"/>
      <point x="101.0" y="599.0" type="line"/>
      <point x="257.0" y="1436.0" type="line"/>
      <point x="65.0" y="1421.0" type="line"/>
      <point x="83.0" y="1494.0" type="line"/>
      <point x="692.0" y="1586.0" type="line"/>
      <point x="708.0" y="1531.0" type="line"/>
      <point x="555.0" y="696.0" type="line"/>
      <point x="428.0" y="84.0" type="line"/>
      <point x="426.0" y="19.0" type="line"/>
    </contour>
    <contour>
      <point x="544.0" y="-6.0" type="line"/>
      <point x="482.0" y="123.0" type="line"/>
      <point x="614.0" y="717.0" type="line" smooth="yes"/>
      <point x="625.0" y="762.0"/>
      <point x="583.0" y="816.0"/>
      <point x="578.0" y="816.0" type="qcurve" smooth="yes"/>
      <point x="594.0" y="816.0"/>
      <point x="598.0" y="795.0"/>
      <point x="543.0" y="703.0" type="qcurve"/>
      <point x="520.0" y="769.0" type="line"/>
      <point x="623.0" y="909.0"/>
      <point x="725.0" y="979.0"/>
      <point x="826.0" y="979.0" type="qcurve" smooth="yes"/>
      <point x="956.0" y="979.0"/>
      <point x="1082.0" y="776.0"/>
      <point x="1051.0" y="627.0" type="qcurve" smooth="yes"/>
      <point x="938.0" y="132.0" type="line"/>
      <point x="1109.0" y="145.0" type="line"/>
      <point x="1100.0" y="87.0" type="line"/>
    </contour>
  </outline>
</glyph>
<glyph name="o" format="2">
  <advance width="1078"/>
  <unicode hex="006F"/>
  <outline>
    <contour>
      <point x="41.0" y="556.0" type="qcurve" smooth="yes"/>
      <point x="94.0" y="772.0"/>
      <point x="453.0" y="1009.0"/>
      <point x="664.0" y="999.0" type="qcurve" smooth="yes"/>
      <point x="876.0" y="987.0"/>
      <point x="1046.0" y="661.0"/>
      <point x="1004.0" y="469.0" type="qcurve" smooth="yes"/>
      <point x="954.0" y="225.0"/>
      <point x="616.0" y="-40.0"/>
      <point x="387.0" y="-22.0" type="qcurve" smooth="yes"/>
      <point x="161.0" y="-3.0"/>
      <point x="-19.0" y="325.0"/>
    </contour>
    <contour>
      <point x="516.0" y="534.0" type="qcurve" smooth="yes"/>
      <point x="469.0" y="338.0"/>
      <point x="386.0" y="69.0"/>
      <point x="433.0" y="58.0" type="qcurve" smooth="yes"/>
      <point x="473.0" y="47.0"/>
      <point x="507.0" y="296.0"/>
      <point x="538.0" y="495.0" type="qcurve" smooth="yes"/>
      <point x="564.0" y="668.0"/>
      <point x="651.0" y="905.0"/>
      <point x="616.0" y="913.0" type="qcurve" smooth="yes"/>
      <point x="578.0" y="922.0"/>
      <point x="556.0" y="706.0"/>
    </contour>
  </outline>
</glyph>
<glyph name="x" format="2">
  <advance width="1087"/>
  <unicode hex="0078"/>
  <outline>
    <contour>
      <point x="49.0" y="871.0" type="line"/>
      <point x="46.0" y="945.0" type="line"/>
      <point x="542.0" y="995.0" type="line"/>
      <point x="611.0" y="969.0" type="line"/>
      <point x="687.0" y="596.0" type="line"/>
      <point x="837.0" y="107.0" type="line"/>
      <point x="959.0" y="132.0" type="line"/>
      <point x="956.0" y="76.0" type="line"/>
      <point x="463.0" y="-10.0" type="line"/>
      <point x="377.0" y="36.0" type="line"/>
      <point x="262.0" y="449.0" type="line"/>
      <point x="152.0" y="872.0" type="line"/>
    </contour>
    <contour>
      <point x="-122.0" y="41.0" type="line"/>
      <point x="-114.0" y="89.0" type="line"/>
      <point x="-76.0" y="91.0" type="line" smooth="yes"/>
      <point x="29.0" y="98.0"/>
      <point x="292.0" y="214.0"/>
      <point x="493.0" y="544.0" type="qcurve" smooth="yes"/>
      <point x="720.0" y="877.0"/>
      <point x="893.0" y="1002.0"/>
      <point x="962.0" y="1002.0" type="qcurve" smooth="yes"/>
      <point x="1011.0" y="1002.0"/>
      <point x="1064.0" y="939.0"/>
      <point x="1064.0" y="892.0" type="qcurve" smooth="yes"/>
      <point x="1064.0" y="844.0"/>
      <point x="1005.0" y="730.0"/>
      <point x="977.0" y="711.0" type="qcurve"/>
      <point x="943.0" y="725.0" type="line"/>
      <point x="945.0" y="818.0" type="line"/>
      <point x="945.0" y="836.0"/>
      <point x="931.0" y="851.0"/>
      <point x="918.0" y="851.0" type="qcurve" smooth="yes"/>
      <point x="825.0" y="851.0"/>
      <point x="675.0" y="756.0"/>
      <point x="499.0" y="486.0" type="qcurve" smooth="yes"/>
      <point x="241.0" y="60.0"/>
      <point x="-17.0" y="-18.0"/>
      <point x="-89.0" y="24.0" type="qcurve"/>
    </contour>
  </outline>
</glyph>
<glyph name="braceleft" format="2">
  <advance width="752"/>
  <unicode hex="007B"/>
  <outline>
    <contour>
      <point x="122.0" y="711.0" type="line"/>
      <point x="132.0" y="753.0" type="line"/>
      <point x="153.0" y="769.0" type="line" smooth="yes"/>
      <point x="206.0" y="779.0"/>
      <point x="311.0" y="802.0"/>
      <point x="328.0" y="909.0" type="qcurve" smooth="yes"/>
      <point x="338.0" y="972.0"/>
      <point x="255.0" y="1207.0"/>
      <point x="254.0" y="1286.0" type="qcurve" smooth="yes"/>
      <point x="256.0" y="1416.0"/>
      <point x="437.0" y="1510.0"/>
      <point x="590.0" y="1510.0" type="qcurve" smooth="yes"/>
      <point x="617.0" y="1510.0"/>
      <point x="881.0" y="1506.0"/>
      <point x="892.0" y="1500.0" type="qcurve"/>
      <point x="884.0" y="1468.0" type="line"/>
      <point x="854.0" y="1470.0"/>
      <point x="829.0" y="1471.0"/>
      <point x="789.0" y="1470.0" type="qcurve" smooth="yes"/>
      <point x="724.0" y="1468.0"/>
      <point x="642.0" y="1398.0"/>
      <point x="645.0" y="1310.0" type="qcurve" smooth="yes"/>
      <point x="644.0" y="1199.0"/>
      <point x="705.0" y="997.0"/>
      <point x="689.0" y="911.0" type="qcurve" smooth="yes"/>
      <point x="677.0" y="839.0"/>
      <point x="554.0" y="774.0"/>
      <point x="421.0" y="755.0" type="qcurve"/>
      <point x="554.0" y="744.0"/>
      <point x="640.0" y="648.0"/>
      <point x="615.0" y="573.0" type="qcurve" smooth="yes"/>
      <point x="583.0" y="475.0"/>
      <point x="409.0" y="198.0"/>
      <point x="385.0" y="78.0" type="qcurve" smooth="yes"/>
      <point x="367.0" y="-18.0"/>
      <point x="406.0" y="-87.0"/>
      <point x="473.0" y="-87.0" type="qcurve" smooth="yes"/>
      <point x="513.0" y="-87.0"/>
      <point x="541.0" y="-84.0"/>
      <point x="575.0" y="-78.0" type="qcurve"/>
      <point x="570.0" y="-109.0" type="line"/>
      <point x="539.0" y="-115.0"/>
      <point x="317.0" y="-122.0"/>
      <point x="280.0" y="-122.0" type="qcurve" smooth="yes"/>
      <point x="115.0" y="-122.0"/>
      <point x="-5.0" y="6.0"/>
      <point x="16.0" y="122.0" type="qcurve" smooth="yes"/>
      <point x="41.0" y="256.0"/>
      <point x="273.0" y="579.0"/>
      <point x="273.0" y="693.0" type="qcurve"/>
      <point x="274.0" y="725.0" type="line"/>
    </contour>
  </outline>
</glyph>
<glyph name="braceright" format="2">
  <advance width="752"/>
  <unicode hex="007D"/>
  <outline>
    <contour>
      <point x="-155.0" y="-107.0" type="qcurve"/>
      <point x="-146.0" y="-78.0" type="line"/>
      <point x="-112.0" y="-84.0"/>
      <point x="-98.0" y="-87.0"/>
      <point x="-58.0" y="-86.0" type="qcurve" smooth="yes"/>
      <point x="14.0" y="-84.0"/>
      <point x="83.0" y="10.0"/>
      <point x="100.0" y="106.0" type="qcurve" smooth="yes"/>
      <point x="116.0" y="193.0"/>
      <point x="30.0" y="490.0"/>
      <point x="46.0" y="569.0" type="qcurve" smooth="yes"/>
      <point x="66.0" y="671.0"/>
      <point x="196.0" y="751.0"/>
      <point x="320.0" y="758.0" type="qcurve"/>
      <point x="191.0" y="788.0"/>
      <point x="90.0" y="868.0"/>
      <point x="140.0" y="955.0" type="qcurve" smooth="yes"/>
      <point x="178.0" y="1020.0"/>
      <point x="316.0" y="1221.0"/>
      <point x="331.0" y="1298.0" type="qcurve" smooth="yes"/>
      <point x="348.0" y="1394.0"/>
      <point x="300.0" y="1477.0"/>
      <point x="230.0" y="1477.0" type="qcurve" smooth="yes"/>
      <point x="190.0" y="1477.0"/>
      <point x="172.0" y="1470.0"/>
      <point x="146.0" y="1468.0" type="qcurve"/>
      <point x="151.0" y="1499.0" type="line"/>
      <point x="182.0" y="1502.0"/>
      <point x="390.0" y="1510.0"/>
      <point x="447.0" y="1510.0" type="qcurve" smooth="yes"/>
      <point x="579.0" y="1510.0"/>
      <point x="735.0" y="1372.0"/>
      <point x="698.0" y="1213.0" type="qcurve" smooth="yes"/>
      <point x="673.0" y="1105.0"/>
      <point x="511.0" y="904.0"/>
      <point x="497.0" y="837.0" type="qcurve"/>
      <point x="481.0" y="779.0" type="line"/>
      <point x="653.0" y="778.0" type="line"/>
      <point x="643.0" y="735.0" type="line"/>
      <point x="566.0" y="729.0" type="line" smooth="yes"/>
      <point x="546.0" y="727.0"/>
      <point x="466.0" y="710.0"/>
      <point x="448.0" y="654.0" type="qcurve" smooth="yes"/>
      <point x="404.0" y="494.0"/>
      <point x="517.0" y="240.0"/>
      <point x="492.0" y="122.0" type="qcurve" smooth="yes"/>
      <point x="465.0" y="-5.0"/>
      <point x="277.0" y="-122.0"/>
      <point x="119.0" y="-122.0" type="qcurve" smooth="yes"/>
      <point x="72.0" y="-122.0"/>
      <point x="-125.0" y="-114.0"/>
    </contour>
  </outline>
</glyph>
<glyph name="asciitilde" format="2">
  <advance width="866"/>
  <unicode hex="007E"/>
  <outline>
    <contour>
      <point x="173.0" y="602.0" type="line"/>
      <point x="208.0" y="690.0"/>
      <point x="310.0" y="851.0"/>
      <point x="367.0" y="860.0" type="qcurve"/>
      <point x="582.0" y="746.0" type="line"/>
      <point x="623.0" y="746.0"/>
      <point x="682.0" y="796.0"/>
      <point x="716.0" y="865.0" type="qcurve"/>
      <point x="751.0" y="806.0" type="line"/>
      <point x="722.0" y="711.0"/>
      <point x="622.0" y="542.0"/>
      <point x="552.0" y="532.0" type="qcurve"/>
      <point x="350.0" y="640.0" type="line"/>
      <point x="310.0" y="640.0"/>
      <point x="252.0" y="600.0"/>
      <point x="211.0" y="533.0" type="qcurve"/>
    </contour>
  </outline>
</glyph>
<glyph name="onesuperior" format="2">
  <advance width="514"/>
  <unicode hex="00B9"/>
  <outline>
    <contour>
      <point x="167.0" y="717.0" type="line"/>
      <point x="172.0" y="739.0"/>
      <point x="171.0" y="666.0"/>
      <point x="180.0" y="719.0" type="qcurve" smooth="yes"/>
      <point x="274.0" y="1236.0" type="line"/>
      <point x="303.0" y="1396.0" type="line"/>
      <point x="117.0" y="1298.0" type="line"/>
      <point x="103.0" y="1369.0" type="line"/>
      <point x="509.0" y="1552.0" type="line"/>
      <point x="580.0" y="1516.0" type="line"/>
      <point x="561.0" y="1500.0"/>
      <point x="548.0" y="1414.0"/>
      <point x="546.0" y="1401.0" type="qcurve" smooth="yes"/>
      <point x="447.0" y="876.0" type="line"/>
      <point x="436.0" y="784.0" type="line"/>
      <point x="225.0" y="686.0" type="line"/>
    </contour>
  </outline>
</glyph>
<glyph name="guillemetright" format="2">
  <advance width="1396"/>
  <unicode hex="00BB"/>
  <outline>
    <contour>
      <point x="726.0" y="568.0" type="line"/>
      <point x="726.0" y="568.0"/>
      <point x="165.0" y="224.0"/>
      <point x="96.0" y="180.0" type="qcurve" smooth="yes"/>
      <point x="36.0" y="143.0"/>
      <point x="17.0" y="241.0"/>
      <point x="75.0" y="289.0" type="qcurve" smooth="yes"/>
      <point x="166.0" y="370.0"/>
      <point x="382.0" y="565.0"/>
      <point x="424.0" y="596.0" type="qcurve"/>
      <point x="383.0" y="626.0"/>
      <point x="128.0" y="874.0"/>
      <point x="102.0" y="920.0" type="qcurve" smooth="yes"/>
      <point x="75.0" y="972.0"/>
      <point x="119.0" y="1047.0"/>
      <point x="158.0" y="1030.0" type="qcurve" smooth="yes"/>
      <point x="210.0" y="999.0"/>
      <point x="678.0" y="676.0"/>
      <point x="737.0" y="628.0" type="qcurve"/>
    </contour>
    <contour>
      <point x="1336.0" y="596.0" type="line"/>
      <point x="1336.0" y="596.0"/>
      <point x="775.0" y="252.0"/>
      <point x="706.0" y="208.0" type="qcurve" smooth="yes"/>
      <point x="646.0" y="171.0"/>
      <point x="627.0" y="269.0"/>
      <point x="685.0" y="317.0" type="qcurve" smooth="yes"/>
      <point x="776.0" y="398.0"/>
      <point x="992.0" y="593.0"/>
      <point x="1034.0" y="624.0" type="qcurve"/>
      <point x="993.0" y="654.0"/>
      <point x="774.0" y="864.0"/>
      <point x="748.0" y="910.0" type="qcurve" smooth="yes"/>
      <point x="721.0" y="962.0"/>
      <point x="765.0" y="1037.0"/>
      <point x="804.0" y="1020.0" type="qcurve" smooth="yes"/>
      <point x="856.0" y="989.0"/>
      <point x="1288.0" y="704.0"/>
      <point x="1347.0" y="656.0" type="qcurve"/>
    </contour>
  </outline>
</glyph>
<glyph name="germandbls" format="2">
  <advance width="1421"/>
  <unicode hex="00DF"/>
  <outline>
    <contour>
      <point x="97.0" y="455.0" type="qcurve"/>
      <point x="224.0" y="1187.0" type="line" smooth="yes"/>
      <point x="255.0" y="1367.0"/>
      <point x="434.0" y="1597.0"/>
      <point x="683.0" y="1597.0" type="qcurve" smooth="yes"/>
      <point x="819.0" y="1597.0"/>
      <point x="985.0" y="1439.0"/>
      <point x="991.0" y="1314.0" type="qcurve" smooth="yes"/>
      <point x="996.0" y="1225.0"/>
      <point x="979.0" y="1097.0"/>
      <point x="939.0" y="1018.0" type="qcurve" smooth="yes"/>
      <point x="913.0" y="952.0"/>
      <point x="929.0" y="897.0"/>
      <point x="929.0" y="874.0" type="qcurve" smooth="yes"/>
      <point x="929.0" y="829.0"/>
      <point x="1040.0" y="738.0"/>
      <point x="1157.0" y="669.0" type="qcurve" smooth="yes"/>
      <point x="1288.0" y="593.0"/>
      <point x="1359.0" y="439.0"/>
      <point x="1355.0" y="350.0" type="qcurve" smooth="yes"/>
      <point x="1350.0" y="157.0"/>
      <point x="1119.0" y="-26.0"/>
      <point x="939.0" y="-26.0" type="qcurve" smooth="yes"/>
      <point x="777.0" y="-26.0"/>
      <point x="625.0" y="41.0"/>
      <point x="623.0" y="152.0" type="qcurve" smooth="yes"/>
      <point x="622.0" y="209.0"/>
      <point x="689.0" y="280.0"/>
      <point x="759.0" y="280.0" type="qcurve" smooth="yes"/>
      <point x="780.0" y="280.0" type="line"/>
      <point x="783.0" y="216.0" type="line" smooth="yes"/>
      <point x="783.0" y="122.0"/>
      <point x="873.0" y="34.0"/>
      <point x="928.0" y="34.0" type="qcurve" smooth="yes"/>
      <point x="1003.0" y="34.0"/>
      <point x="1068.0" y="110.0"/>
      <point x="1074.0" y="149.0" type="qcurve" smooth="yes"/>
      <point x="1080.0" y="187.0"/>
      <point x="1056.0" y="245.0"/>
      <point x="930.0" y="324.0" type="qcurve" smooth="yes"/>
      <point x="805.0" y="409.0"/>
      <point x="677.0" y="574.0"/>
      <point x="681.0" y="686.0" type="qcurve" smooth="yes"/>
      <point x="683.0" y="761.0"/>
      <point x="753.0" y="958.0"/>
      <point x="770.0" y="1010.0" type="qcurve" smooth="yes"/>
      <point x="820.0" y="1099.0"/>
      <point x="844.0" y="1204.0"/>
      <point x="844.0" y="1320.0" type="qcurve" smooth="yes"/>
      <point x="844.0" y="1437.0"/>
      <point x="783.0" y="1526.0"/>
      <point x="740.0" y="1526.0" type="qcurve" smooth="yes"/>
      <point x="733.0" y="1526.0"/>
      <point x="691.0" y="1401.0"/>
      <point x="657.0" y="1187.0" type="qcurve" smooth="yes"/>
      <point x="556.0" y="496.0" type="line" smooth="yes"/>
      <point x="478.0" y="-4.0"/>
      <point x="40.0" y="-393.0"/>
      <point x="-180.0" y="-393.0" type="qcurve"/>
      <point x="-377.0" y="-341.0" type="line"/>
      <point x="-348.0" y="-283.0" type="line"/>
      <point x="-298.0" y="-283.0" type="line"/>
      <point x="-103.0" y="-281.0"/>
      <point x="26.0" y="27.0"/>
    </contour>
  </outline>
</glyph>
<glyph name="kgreenlandic" format="2">
  <advance width="1209"/>
  <unicode hex="0138"/>
  <outline>
    <contour>
      <point x="-4.0" y="126.0" type="line"/>
      <point x="72.0" y="458.0" type="line"/>
      <point x="135.0" y="811.0" type="line"/>
      <point x="20.0" y="837.0" type="line"/>
      <point x="32.0" y="896.0" type="line"/>
      <point x="393.0" y="964.0" type="line"/>
      <point x="589.0" y="966.0" type="line"/>
      <point x="604.0" y="824.0" type="line"/>
      <point x="558.0" y="680.0" type="line"/>
      <point x="453.0" y="177.0" type="line"/>
      <point x="452.0" y="43.0" type="line"/>
      <point x="-37.0" y="18.0" type="line"/>
    </contour>
    <contour>
      <point x="1202.0" y="915.0" type="line"/>
      <point x="1052.0" y="875.0" type="line"/>
      <point x="890.0" y="715.0" type="line"/>
      <point x="956.0" y="119.0" type="line"/>
      <point x="1067.0" y="102.0" type="line"/>
      <point x="1062.0" y="47.0" type="line"/>
      <point x="677.0" y="-2.0" type="line" smooth="yes"/>
      <point x="628.0" y="-16.0"/>
      <point x="578.0" y="9.0"/>
      <point x="527.0" y="104.0" type="qcurve"/>
      <point x="564.0" y="475.0" type="line"/>
      <point x="484.0" y="364.0" type="line"/>
      <point x="495.0" y="431.0" type="line"/>
      <point x="871.0" y="868.0" type="line"/>
      <point x="865.0" y="879.0" type="line"/>
      <point x="753.0" y="910.0" type="line"/>
      <point x="760.0" y="962.0" type="line"/>
      <point x="1205.0" y="963.0" type="line"/>
    </contour>
  </outline>
</glyph>
<glyph name="ring" format="2">
  <advance width="896"/>
  <unicode hex="02DA"/>
  <outline>
    <contour>
      <point x="278.0" y="1298.0" type="qcurve" smooth="yes"/>
      <point x="278.0" y="1393.0"/>
      <point x="421.0" y="1530.0"/>
      <point x="518.0" y="1530.0" type="qcurve" smooth="yes"/>
      <point x="616.0" y="1530.0"/>
      <point x="758.0" y="1393.0"/>
      <point x="758.0" y="1298.0" type="qcurve" smooth="yes"/>
      <point x="758.0" y="1203.0"/>
      <point x="616.0" y="1066.0"/>
      <point x="518.0" y="1066.0" type="qcurve" smooth="yes"/>
      <point x="421.0" y="1066.0"/>
      <point x="278.0" y="1203.0"/>
    </contour>
    <contour>
      <point x="382.0" y="1298.0" type="qcurve" smooth="yes"/>
      <point x="382.0" y="1240.0"/>
      <point x="458.0" y="1165.0"/>
      <point x="518.0" y="1165.0" type="qcurve" smooth="yes"/>
      <point x="578.0" y="1165.0"/>
      <point x="654.0" y="1237.0"/>
      <point x="654.0" y="1298.0" type="qcurve" smooth="yes"/>
      <point x="654.0" y="1356.0"/>
      <point x="578.0" y="1432.0"/>
      <point x="518.0" y="1432.0" type="qcurve" smooth="yes"/>
      <point x="456.0" y="1432.0"/>
      <point x="382.0" y="1358.0"/>
    </contour>
  </outline>
</glyph>
<glyph name="dagger" format="2">
  <advance width="706"/>
  <unicode hex="2020"/>
  <outline>
    <contour>
      <point x="160.0" y="-480.0" type="line"/>
      <point x="187.0" y="-17.0" type="line"/>
      <point x="329.0" y="350.0" type="line"/>
      <point x="454.0" y="930.0" type="line"/>
      <point x="501.0" y="1450.0" type="line"/>
      <point x="573.0" y="1506.0" type="line"/>
      <point x="694.0" y="1506.0" type="line"/>
      <point x="737.0" y="1426.0" type="line"/>
      <point x="555.0" y="930.0" type="line"/>
      <point x="430.0" y="350.0" type="line"/>
      <point x="393.0" y="-39.0" type="line"/>
      <point x="221.0" y="-480.0" type="line"/>
    </contour>
    <contour>
      <point x="158.0" y="909.0" type="line"/>
      <point x="164.0" y="939.0" type="line"/>
      <point x="564.0" y="972.0" type="line"/>
      <point x="899.0" y="939.0" type="line"/>
      <point x="894.0" y="909.0" type="line"/>
      <point x="525.0" y="921.0" type="line"/>
    </contour>
  </outline>
</glyph>
<glyph name="minute" format="2">
  <advance width="506"/>
  <unicode hex="2032"/>
  <outline>
    <contour>
      <point x="340.0" y="964.0" type="line"/>
      <point x="411.0" y="1367.0" type="line" smooth="yes"/>
      <point x="424.0" y="1423.0"/>
      <point x="513.0" y="1488.0"/>
      <point x="577.0" y="1476.0" type="qcurve" smooth="yes"/>
      <point x="639.0" y="1463.0"/>
      <point x="623.0" y="1329.0"/>
      <point x="581.0" y="1280.0" type="qcurve" smooth="yes"/>
      <point x="371.0" y="956.0" type="line"/>
    </contour>
  </outline>
</glyph>
<glyph name="second" format="2">
  <advance width="776"/>
  <unicode hex="2033"/>
  <outline>
    <contour>
      <point x="340.0" y="962.0" type="line"/>
      <point x="417.0" y="1359.0" type="line" smooth="yes"/>
      <point x="431.0" y="1415.0"/>
      <point x="513.0" y="1486.0"/>
      <point x="577.0" y="1474.0" type="qcurve" smooth="yes"/>
      <point x="639.0" y="1461.0"/>
      <point x="618.0" y="1338.0"/>
      <point x="577.0" y="1288.0" type="qcurve" smooth="yes"/>
      <point x="371.0" y="954.0" type="line"/>
    </contour>
    <contour>
      <point x="610.0" y="962.0" type="line"/>
      <point x="687.0" y="1359.0" type="line" smooth="yes"/>
      <point x="701.0" y="1415.0"/>
      <point x="783.0" y="1486.0"/>
      <point x="847.0" y="1474.0" type="qcurve" smooth="yes"/>
      <point x="909.0" y="1461.0"/>
      <point x="888.0" y="1338.0"/>
      <point x="847.0" y="1288.0" type="qcurve" smooth="yes"/>
      <point x="641.0" y="954.0" type="line"/>
    </contour>
  </outline>
</glyph>
<glyph name="colonsign" format="2">
  <advance width="968"/>
  <unicode hex="20A1"/>
  <outline>
    <contour>
      <point x="570.0" y="-32.0" type="line"/>
      <point x="607.0" y="64.0" type="line"/>
      <point x="607.0" y="64.0" type="line"/>
      <point x="778.0" y="811.0" type="line"/>
      <point x="809.0" y="803.0" type="line"/>
      <point x="650.0" y="73.0" type="line"/>
      <point x="650.0" y="74.0" type="line"/>
      <point x="615.0" y="43.0" type="line"/>
    </contour>
    <contour>
      <point x="951.0" y="1562.0" type="line"/>
      <point x="990.0" y="1565.0" type="line"/>
      <point x="947.0" y="1394.0" type="line"/>
      <point x="945.0" y="1394.0" type="line"/>
      <point x="809.0" y="803.0" type="line"/>
      <point x="778.0" y="811.0" type="line"/>
      <point x="913.0" y="1403.0" type="line"/>
      <point x="913.0" y="1403.0" type="line"/>
    </contour>
    <contour>
      <point x="506.0" y="-126.0" type="line"/>
      <point x="515.0" y="-72.0" type="line"/>
      <point x="515.0" y="-72.0" type="line"/>
      <point x="728.0" y="811.0" type="line"/>
      <point x="759.0" y="803.0" type="line"/>
      <point x="558.0" y="-63.0" type="line"/>
      <point x="558.0" y="-62.0" type="line"/>
      <point x="551.0" y="-51.0" type="line"/>
    </contour>
    <contour>
      <point x="901.0" y="1562.0" type="line"/>
      <point x="940.0" y="1565.0" type="line"/>
      <point x="885.0" y="1329.0" type="line"/>
      <point x="883.0" y="1329.0" type="line"/>
      <point x="759.0" y="803.0" type="line"/>
      <point x="728.0" y="811.0" type="line"/>
      <point x="867.0" y="1398.0" type="line"/>
      <point x="867.0" y="1398.0" type="line"/>
    </contour>
    <contour>
      <point x="155.0" y="785.0" type="qcurve" smooth="yes"/>
      <point x="233.0" y="1187.0"/>
      <point x="568.0" y="1442.0"/>
      <point x="796.0" y="1396.0" type="qcurve" smooth="yes"/>
      <point x="941.0" y="1365.0"/>
      <point x="1083.0" y="1171.0"/>
      <point x="1070.0" y="992.0" type="qcurve"/>
      <point x="943.0" y="992.0" type="line"/>
      <point x="945.0" y="1123.0"/>
      <point x="844.0" y="1279.0"/>
      <point x="828.0" y="1302.0" type="qcurve" smooth="yes"/>
      <point x="732.0" y="1347.0"/>
      <point x="640.0" y="1055.0"/>
      <point x="590.0" y="820.0" type="qcurve" smooth="yes"/>
      <point x="526.0" y="538.0"/>
      <point x="503.0" y="220.0"/>
      <point x="586.0" y="192.0" type="qcurve" smooth="yes"/>
      <point x="667.0" y="165.0"/>
      <point x="806.0" y="280.0"/>
      <point x="869.0" y="388.0" type="qcurve"/>
      <point x="871.0" y="402.0" type="line"/>
      <point x="972.0" y="345.0" type="line"/>
      <point x="912.0" y="216.0"/>
      <point x="748.0" y="49.0"/>
      <point x="545.0" y="68.0" type="qcurve" smooth="yes"/>
      <point x="334.0" y="86.0"/>
      <point x="87.0" y="428.0"/>
    </contour>
  </outline>
</glyph>
<glyph name="kip" format="2">
  <advance width="1200"/>
  <unicode hex="20AD"/>
  <outline>
    <contour>
      <point x="1233.0" y="846.0" type="line"/>
      <point x="743.0" y="846.0" type="line"/>
      <point x="743.0" y="852.0" type="line"/>
      <point x="687.0" y="852.0" type="line"/>
      <point x="830.0" y="914.0" type="line"/>
      <point x="836.0" y="914.0" type="line"/>
      <point x="836.0" y="914.0" type="line"/>
      <point x="1236.0" y="914.0" type="line"/>
    </contour>
    <contour>
      <point x="75.0" y="846.0" type="line"/>
      <point x="87.0" y="914.0" type="line"/>
      <point x="320.0" y="914.0" type="line"/>
      <point x="320.0" y="912.0" type="line"/>
      <point x="529.0" y="912.0" type="line"/>
      <point x="367.0" y="848.0" type="line"/>
      <point x="303.0" y="848.0" type="line"/>
      <point x="303.0" y="846.0" type="line"/>
    </contour>
    <contour>
      <point x="-45.0" y="0.0" type="line"/>
      <point x="-31.0" y="51.0" type="line"/>
      <point x="11.0" y="76.0" type="line"/>
      <point x="177.0" y="848.0" type="line"/>
      <point x="295.0" y="1414.0" type="line"/>
      <point x="229.0" y="1446.0" type="line"/>
      <point x="237.0" y="1500.0" type="line"/>
      <point x="825.0" y="1500.0" type="line"/>
      <point x="797.0" y="1446.0" type="line"/>
      <point x="739.0" y="1414.0" type="line"/>
      <point x="612.0" y="816.0" type="line"/>
      <point x="445.0" y="76.0" type="line"/>
      <point x="500.0" y="51.0" type="line"/>
      <point x="484.0" y="0.0" type="line"/>
    </contour>
    <contour>
      <point x="449.0" y="452.0" type="line"/>
      <point x="474.0" y="574.0" type="line"/>
      <point x="1258.0" y="1432.0" type="line"/>
      <point x="1094.0" y="1446.0" type="line"/>
      <point x="1111.0" y="1500.0" type="line"/>
      <point x="1549.0" y="1500.0" type="line"/>
      <point x="1532.0" y="1446.0" type="line"/>
      <point x="1397.0" y="1432.0" type="line"/>
    </contour>
    <contour>
      <point x="777.0" y="855.0" type="line"/>
      <point x="1121.0" y="1199.0" type="line"/>
      <point x="1102.0" y="76.0" type="line"/>
      <point x="1198.0" y="51.0" type="line"/>
      <point x="1185.0" y="0.0" type="line"/>
      <point x="556.0" y="0.0" type="line"/>
      <point x="572.0" y="51.0" type="line"/>
      <point x="662.0" y="76.0" type="line"/>
    </contour>
  </outline>
</glyph>
<glyph name="trademark" format="2">
  <advance width="1308"/>
  <unicode hex="2122"/>
  <outline>
    <contour>
      <point x="221.0" y="1265.0" type="line"/>
      <point x="283.0" y="1500.0" type="line"/>
      <point x="668.0" y="1500.0" type="line"/>
      <point x="606.0" y="1265.0" type="line"/>
      <point x="564.0" y="1265.0" type="line"/>
      <point x="569.0" y="1450.0" type="line"/>
      <point x="555.0" y="1450.0" type="line"/>
      <point x="542.0" y="1433.0" type="line"/>
      <point x="467.0" y="1150.0" type="line"/>
      <point x="402.0" y="968.0" type="line"/>
      <point x="459.0" y="943.0" type="line"/>
      <point x="445.0" y="886.0" type="line"/>
      <point x="173.0" y="886.0" type="line"/>
      <point x="187.0" y="943.0" type="line"/>
      <point x="273.0" y="968.0" type="line"/>
      <point x="308.0" y="1124.0" type="line"/>
      <point x="372.0" y="1433.0" type="line"/>
      <point x="373.0" y="1450.0" type="line"/>
      <point x="350.0" y="1450.0" type="line"/>
      <point x="263.0" y="1265.0" type="line"/>
    </contour>
    <contour>
      <point x="505.0" y="887.0" type="line"/>
      <point x="519.0" y="942.0" type="line"/>
      <point x="606.0" y="966.0" type="line"/>
      <point x="661.0" y="1172.0" type="line"/>
      <point x="727.0" y="1427.0" type="line"/>
      <point x="668.0" y="1456.0" type="line"/>
      <point x="681.0" y="1500.0" type="line"/>
      <point x="914.0" y="1500.0" type="line"/>
      <point x="904.0" y="1081.0" type="line"/>
      <point x="1146.0" y="1500.0" type="line"/>
      <point x="1366.0" y="1500.0" type="line"/>
      <point x="1353.0" y="1456.0" type="line"/>
      <point x="1271.0" y="1427.0" type="line"/>
      <point x="1212.0" y="1211.0" type="line"/>
      <point x="1150.0" y="964.0" type="line"/>
      <point x="1216.0" y="940.0" type="line"/>
      <point x="1205.0" y="886.0" type="line"/>
      <point x="936.0" y="886.0" type="line"/>
      <point x="947.0" y="940.0" type="line"/>
      <point x="1023.0" y="964.0" type="line"/>
      <point x="1085.0" y="1211.0" type="line"/>
      <point x="1144.0" y="1431.0" type="line"/>
      <point x="850.0" y="879.0" type="line"/>
      <point x="778.0" y="879.0" type="line"/>
      <point x="768.0" y="1386.0" type="line"/>
      <point x="709.0" y="1172.0" type="line"/>
      <point x="656.0" y="966.0" type="line"/>
      <point x="712.0" y="942.0" type="line"/>
      <point x="698.0" y="887.0" type="line"/>
    </contour>
  </outline>
</glyph>
<glyph name="dblgravecomb.case" format="2">
  <advance width="896"/>
  <outline>
    <contour>
      <point x="5.0" y="1920.0" type="qcurve" smooth="yes"/>
      <point x="15.0" y="1952.0"/>
      <point x="86.0" y="1987.0"/>
      <point x="117.0" y="1983.0" type="qcurve" smooth="yes"/>
      <point x="146.0" y="1978.0"/>
      <point x="187.0" y="1937.0"/>
      <point x="197.0" y="1895.0" type="qcurve" smooth="yes"/>
      <point x="292.0" y="1587.0" type="line"/>
      <point x="267.0" y="1589.0" type="line"/>
      <point x="10.0" y="1802.0" type="line" smooth="yes"/>
      <point x="-11.0" y="1822.0"/>
      <point x="-8.0" y="1899.0"/>
    </contour>
    <contour>
      <point x="288.0" y="1921.0" type="qcurve" smooth="yes"/>
      <point x="299.0" y="1952.0"/>
      <point x="370.0" y="1990.0"/>
      <point x="402.0" y="1984.0" type="qcurve" smooth="yes"/>
      <point x="431.0" y="1977.0"/>
      <point x="470.0" y="1937.0"/>
      <point x="481.0" y="1895.0" type="qcurve" smooth="yes"/>
      <point x="577.0" y="1588.0" type="line"/>
      <point x="551.0" y="1589.0" type="line"/>
      <point x="295.0" y="1802.0" type="line" smooth="yes"/>
      <point x="274.0" y="1822.0"/>
      <point x="276.0" y="1899.0"/>
    </contour>
  </outline>
</glyph>
<glyph name="eight.tab" format="2">
  <advance width="1283"/>
  <outline>
    <contour>
      <point x="135.0" y="346.0" type="qcurve" smooth="yes"/>
      <point x="135.0" y="517.0"/>
      <point x="405.0" y="753.0"/>
      <point x="665.0" y="847.0" type="qcurve"/>
      <point x="729.0" y="794.0" type="line"/>
      <point x="596.0" y="725.0"/>
      <point x="427.0" y="495.0"/>
      <point x="427.0" y="355.0" type="qcurve" smooth="yes"/>
      <point x="427.0" y="223.0"/>
      <point x="515.0" y="72.0"/>
      <point x="640.0" y="72.0" type="qcurve" smooth="yes"/>
      <point x="750.0" y="72.0"/>
      <point x="853.0" y="223.0"/>
      <point x="855.0" y="343.0" type="qcurve" smooth="yes"/>
      <point x="857.0" y="454.0"/>
      <point x="676.0" y="666.0"/>
      <point x="591.0" y="733.0" type="qcurve" smooth="yes"/>
      <point x="440.0" y="848.0"/>
      <point x="355.0" y="1010.0"/>
      <point x="355.0" y="1137.0" type="qcurve" smooth="yes"/>
      <point x="355.0" y="1307.0"/>
      <point x="585.0" y="1536.0"/>
      <point x="847.0" y="1536.0" type="qcurve" smooth="yes"/>
      <point x="1053.0" y="1536.0"/>
      <point x="1226.0" y="1368.0"/>
      <point x="1216.0" y="1226.0" type="qcurve" smooth="yes"/>
      <point x="1206.0" y="1095.0"/>
      <point x="1007.0" y="916.0"/>
      <point x="779.0" y="821.0" type="qcurve"/>
      <point x="726.0" y="875.0" type="line"/>
      <point x="848.0" y="965.0"/>
      <point x="946.0" y="1134.0"/>
      <point x="946.0" y="1240.0" type="qcurve" smooth="yes"/>
      <point x="946.0" y="1319.0"/>
      <point x="889.0" y="1460.0"/>
      <point x="813.0" y="1460.0" type="qcurve" smooth="yes"/>
      <point x="767.0" y="1460.0"/>
      <point x="695.0" y="1322.0"/>
      <point x="695.0" y="1204.0" type="qcurve" smooth="yes"/>
      <point x="695.0" y="1118.0"/>
      <point x="833.0" y="984.0"/>
      <point x="931.0" y="893.0" type="qcurve" smooth="yes"/>
      <point x="1097.0" y="762.0"/>
      <point x="1195.0" y="585.0"/>
      <point x="1195.0" y="415.0" type="qcurve" smooth="yes"/>
      <point x="1195.0" y="219.0"/>
      <point x="898.0" y="3.0"/>
      <point x="578.0" y="3.0" type="qcurve" smooth="yes"/>
      <point x="350.0" y="3.0"/>
      <point x="135.0" y="188.0"/>
    </contour>
  </outline>
</glyph>
<glyph name="gravecomb.case" format="2">
  <advance width="896"/>
  <outline>
    <contour>
      <point x="357.0" y="1740.0" type="qcurve" smooth="yes"/>
      <point x="586.0" y="1589.0" type="line"/>
      <point x="618.0" y="1618.0" type="line"/>
      <point x="528.0" y="1825.0" type="line" smooth="yes"/>
      <point x="493.0" y="1883.0"/>
      <point x="436.0" y="1932.0"/>
      <point x="408.0" y="1932.0" type="qcurve" smooth="yes"/>
      <point x="363.0" y="1932.0"/>
      <point x="307.0" y="1882.0"/>
      <point x="307.0" y="1845.0" type="qcurve" smooth="yes"/>
      <point x="307.0" y="1822.0"/>
      <point x="321.0" y="1761.0"/>
    </contour>
  </outline>
</glyph>
<glyph name="horncomb.case" format="2">
  <advance width="896"/>
  <outline>
    <contour>
      <point x="169.0" y="1493.0" type="line"/>
      <point x="253.0" y="1493.0"/>
      <point x="269.0" y="1493.0"/>
      <point x="325.0" y="1493.0" type="qcurve" smooth="yes"/>
      <point x="459.0" y="1493.0"/>
      <point x="541.0" y="1612.0"/>
      <point x="540.0" y="1756.0" type="qcurve" smooth="yes"/>
      <point x="530.0" y="1756.0"/>
      <point x="522.0" y="1778.0"/>
      <point x="513.0" y="1748.0" type="qcurve"/>
      <point x="562.0" y="1748.0" type="line"/>
      <point x="574.0" y="1714.0"/>
      <point x="588.0" y="1723.0"/>
      <point x="609.0" y="1742.0" type="qcurve" smooth="yes"/>
      <point x="629.0" y="1606.0"/>
      <point x="493.0" y="1419.0"/>
      <point x="312.0" y="1419.0" type="qcurve" smooth="yes"/>
      <point x="284.0" y="1419.0"/>
      <point x="219.0" y="1431.0"/>
      <point x="160.0" y="1455.0" type="qcurve"/>
    </contour>
  </outline>
</glyph>
<glyph name="ringcomb.case" format="2">
  <advance width="896"/>
  <outline>
    <contour>
      <point x="253.0" y="1838.0" type="qcurve" smooth="yes"/>
      <point x="253.0" y="1945.0"/>
      <point x="406.0" y="2097.0"/>
      <point x="513.0" y="2097.0" type="qcurve" smooth="yes"/>
      <point x="621.0" y="2097.0"/>
      <point x="774.0" y="1945.0"/>
      <point x="774.0" y="1838.0" type="qcurve" smooth="yes"/>
      <point x="774.0" y="1731.0"/>
      <point x="621.0" y="1580.0"/>
      <point x="513.0" y="1580.0" type="qcurve" smooth="yes"/>
      <point x="406.0" y="1580.0"/>
      <point x="253.0" y="1731.0"/>
    </contour>
    <contour>
      <point x="360.0" y="1838.0" type="qcurve" smooth="yes"/>
      <point x="360.0" y="1765.0"/>
      <point x="440.0" y="1685.0"/>
      <point x="513.0" y="1685.0" type="qcurve" smooth="yes"/>
      <point x="586.0" y="1685.0"/>
      <point x="666.0" y="1764.0"/>
      <point x="666.0" y="1838.0" type="qcurve" smooth="yes"/>
      <point x="666.0" y="1910.0"/>
      <point x="586.0" y="1991.0"/>
      <point x="513.0" y="1991.0" type="qcurve" smooth="yes"/>
      <point x="440.0" y="1991.0"/>
      <point x="360.0" y="1912.0"/>
    </contour>
  </outline>
</glyph>
<glyph name="seven.lc" format="2">
  <advance width="942"/>
  <outline>
    <contour>
      <point x="25.0" y="539.0" type="line"/>
      <point x="211.0" y="954.0" type="line"/>
      <point x="1004.0" y="954.0" type="line"/>
      <point x="1024.0" y="895.0" type="line"/>
      <point x="802.0" y="474.0"/>
      <point x="521.0" y="-54.0"/>
      <point x="402.0" y="-350.0" type="qcurve"/>
      <point x="99.0" y="-408.0" type="line"/>
      <point x="81.0" y="-358.0" type="line"/>
      <point x="222.0" y="-70.0"/>
      <point x="539.0" y="367.0"/>
      <point x="755.0" y="688.0" type="qcurve"/>
      <point x="750.0" y="706.0" type="line"/>
      <point x="215.0" y="706.0" type="line"/>
      <point x="109.0" y="539.0" type="line"/>
    </contour>
  </outline>
</glyph>
<glyph name="six.lf" format="2">
  <advance width="1050"/>
  <outline>
    <contour>
      <point x="79.0" y="471.0" type="qcurve" smooth="yes"/>
      <point x="135.0" y="923.0"/>
      <point x="836.0" y="1482.0"/>
      <point x="1205.0" y="1551.0" type="qcurve"/>
      <point x="1202.0" y="1474.0" type="line"/>
      <point x="944.0" y="1365.0"/>
      <point x="577.0" y="829.0"/>
      <point x="509.0" y="446.0" type="qcurve" smooth="yes"/>
      <point x="478.0" y="229.0"/>
      <point x="509.0" y="64.0"/>
      <point x="505.0" y="64.0" type="qcurve" smooth="yes"/>
      <point x="558.0" y="64.0"/>
      <point x="648.0" y="309.0"/>
      <point x="691.0" y="460.0" type="qcurve" smooth="yes"/>
      <point x="719.0" y="607.0"/>
      <point x="688.0" y="754.0"/>
      <point x="637.0" y="754.0" type="qcurve" smooth="yes"/>
      <point x="617.0" y="754.0"/>
      <point x="594.0" y="753.0"/>
      <point x="571.0" y="738.0" type="qcurve"/>
      <point x="568.0" y="805.0" type="line"/>
      <point x="614.0" y="833.0"/>
      <point x="795.0" y="886.0"/>
      <point x="814.0" y="886.0" type="qcurve" smooth="yes"/>
      <point x="963.0" y="886.0"/>
      <point x="1107.0" y="686.0"/>
      <point x="1081.0" y="499.0" type="qcurve" smooth="yes"/>
      <point x="1046.0" y="244.0"/>
      <point x="722.0" y="-8.0"/>
      <point x="489.0" y="-8.0" type="qcurve" smooth="yes"/>
      <point x="342.0" y="-8.0"/>
      <point x="44.0" y="216.0"/>
    </contour>
  </outline>
</glyph>
<glyph name="three.lf" format="2">
  <advance width="1069"/>
  <outline>
    <contour>
      <point x="102.0" y="275.0" type="qcurve" smooth="yes"/>
      <point x="104.0" y="313.0"/>
      <point x="172.0" y="378.0"/>
      <point x="201.0" y="375.0" type="qcurve"/>
      <point x="237.0" y="374.0" type="line"/>
      <point x="229.0" y="318.0"/>
      <point x="225.0" y="257.0"/>
      <point x="227.0" y="224.0" type="qcurve" smooth="yes"/>
      <point x="244.0" y="180.0"/>
      <point x="347.0" y="89.0"/>
      <point x="448.0" y="89.0" type="qcurve" smooth="yes"/>
      <point x="507.0" y="89.0"/>
      <point x="595.0" y="252.0"/>
      <point x="611.0" y="452.0" type="qcurve" smooth="yes"/>
      <point x="625.0" y="611.0"/>
      <point x="565.0" y="773.0"/>
      <point x="454.0" y="769.0" type="qcurve" smooth="yes"/>
      <point x="355.0" y="772.0" type="line"/>
      <point x="357.0" y="847.0" type="line"/>
      <point x="423.0" y="845.0" type="line" smooth="yes"/>
      <point x="569.0" y="840.0"/>
      <point x="676.0" y="1006.0"/>
      <point x="686.0" y="1123.0" type="qcurve" smooth="yes"/>
      <point x="692.0" y="1190.0"/>
      <point x="623.0" y="1322.0"/>
      <point x="536.0" y="1322.0" type="qcurve" smooth="yes"/>
      <point x="520.0" y="1322.0"/>
      <point x="361.0" y="1242.0"/>
      <point x="319.0" y="1169.0" type="qcurve"/>
      <point x="292.0" y="1249.0" type="line"/>
      <point x="332.0" y="1350.0"/>
      <point x="503.0" y="1493.0"/>
      <point x="680.0" y="1492.0" type="qcurve" smooth="yes"/>
      <point x="907.0" y="1491.0"/>
      <point x="1094.0" y="1349.0"/>
      <point x="1085.0" y="1220.0" type="qcurve" smooth="yes"/>
      <point x="1077.0" y="1070.0"/>
      <point x="890.0" y="875.0"/>
      <point x="730.0" y="826.0" type="qcurve"/>
      <point x="728.0" y="819.0" type="line"/>
      <point x="887.0" y="798.0"/>
      <point x="1024.0" y="575.0"/>
      <point x="1016.0" y="443.0" type="qcurve" smooth="yes"/>
      <point x="1004.0" y="252.0"/>
      <point x="733.0" y="11.0"/>
      <point x="479.0" y="11.0" type="qcurve" smooth="yes"/>
      <point x="276.0" y="11.0"/>
      <point x="100.0" y="186.0"/>
    </contour>
  </outline>
</glyph>
